<?xml version="1.0" encoding="utf-8"?>
<!-- Generator: Adobe Illustrator 26.0.1, SVG Export Plug-In . SVG Version: 6.00 Build 0)  -->
<svg version="1.1" id="Layer_1" xmlns="http://www.w3.org/2000/svg" xmlns:xlink="http://www.w3.org/1999/xlink" x="0px" y="0px"
	 viewBox="0 0 1582.19 720.72" style="enable-background:new 0 0 1582.19 720.72;" xml:space="preserve">
<style type="text/css">
	.st0{clip-path:url(#SVGID_00000111899778393207416290000005187144184133980325_);}
	.st1{fill:#DCCEC0;}
	.st2{fill:#EEEAE4;}
	.st3{fill:#C9B5A0;}
	.st4{fill:#497939;}
	.st5{fill:#EDEEE9;}
	.st6{fill:#E7E9DF;}
	.st7{fill:#EAE1D6;}
	.st8{fill:#DFE1D6;}
	.st9{fill:#F3EEE7;}
	.st10{fill:#EFF1EB;}
	.st11{fill:#DDDFD2;}
	.st12{fill:#E7EDDD;}
	.st13{fill:#C5D4BA;}
	.st14{fill:#F8F9F4;}
	.st15{fill:#ECEDE7;}
	.st16{fill:#EBECE4;}
	.st17{fill:#EDEFE8;}
	.st18{fill:#EBE3DA;}
	.st19{fill:#F0EBE3;}
	.st20{fill:#B89C81;}
	.st21{fill-rule:evenodd;clip-rule:evenodd;fill:#FFFFFF;}
	.st22{clip-path:url(#SVGID_00000165217049816630239780000001589055709459270071_);}
	.st23{fill:#5F6060;}
	.st24{clip-path:url(#SVGID_00000139260104636998809060000010770308030082800547_);}
	.st25{clip-path:url(#SVGID_00000129890068310034219650000013544386586797335217_);}
	.st26{clip-path:url(#SVGID_00000044170002087938803650000007051439149796290433_);}
	.st27{clip-path:url(#SVGID_00000000223054641817274380000001103172813010613432_);}
	.st28{clip-path:url(#SVGID_00000029033542790446400480000012669168084317365172_);}
	.st29{clip-path:url(#SVGID_00000132769930201197118990000010796263669815936396_);}
	.st30{clip-path:url(#SVGID_00000145019289449262626420000015085091379637697922_);}
	.st31{clip-path:url(#SVGID_00000032613354746313095640000000688471167217242037_);}
</style>
<g id="surface1">
	<g>
		<defs>
			<rect id="SVGID_1_" x="1104.43" y="141.28" width="221" height="34.45"/>
		</defs>
		<clipPath id="SVGID_00000067194372625670085410000003538614748112594858_">
			<use xlink:href="#SVGID_1_"  style="overflow:visible;"/>
		</clipPath>
		<g style="clip-path:url(#SVGID_00000067194372625670085410000003538614748112594858_);">
			<path class="st1" d="M1325.44,175.45c0,0-42.22-15.89-105.75-31.15c-39.83-3.59-78.19-3.82-114.81-1.47
				c62.65,13.83,105.47,27.87,110.59,29.58C1250.53,169.6,1287.23,170.25,1325.44,175.45"/>
		</g>
	</g>
	<path class="st2" d="M1191.83,137.96c-35.43-7.57-75.7-14.36-118.02-18.15c-35.01-0.7-68.17-0.38-99.48,0.77
		c35.99,4.24,69.91,9.89,100.34,15.91C1111.78,134.44,1150.9,134.7,1191.83,137.96"/>
	<path class="st3" d="M963.87,165.26c64.84,19.98,107.9,39.2,107.9,39.2c33.7-12.41,69.91-22.22,108.36-27.99
		c-11.14-3.96-50.74-17.37-111.07-30.47C1031.89,150.18,996.75,156.91,963.87,165.26"/>
	<path class="st4" d="M858.82,269.07c-2.95-1.89-6.03-3.88-9.25-5.89c-1.92-1.17-3.87-2.38-5.89-3.63
		c-1.92-1.17-3.88-2.34-5.86-3.55c-3.02-1.82-6.14-3.68-9.36-5.53l-0.1-0.04c-3.16-1.9-6.41-3.76-9.73-5.61
		c-0.14-0.08-0.25-0.16-0.38-0.2c-3.32-1.93-6.75-3.84-10.25-5.73c-3.63-1.98-7.37-4-11.17-6.02c-1.85-0.97-3.73-1.94-5.62-2.95
		l-0.07-0.04h-0.07L791,229.9c-61.76,32.1-101.38,62.06-110.02,69.05c70.4,53.14,110.12,102.6,110.12,102.6
		s39.72-49.46,110.12-102.6c-4.32-3.51-16.38-12.76-35.13-25.12C863.76,272.26,861.33,270.69,858.82,269.07"/>
	<path class="st5" d="M459.85,135.21c-22.55,0-45.73,0.88-69.55,2.78c-9.65,2.06-18.91,4.18-27.79,6.31
		c22.79-2.06,45.11-3.02,66.88-3.02c16.28,0,32.26,0.54,47.92,1.54c9.59-2.11,19.67-4.23,30.15-6.31
		C491.94,135.67,476.06,135.21,459.85,135.21"/>
	<path class="st5" d="M607.81,120.62c-35.99,4.24-69.92,9.89-100.34,15.91c12.84,0.71,25.44,1.71,37.81,2.95
		c15.85-3,32.81-5.89,50.72-8.55c19.51-2.9,40.16-5.53,61.87-7.7C641.73,122.13,625.06,121.25,607.81,120.62"/>
	<path class="st5" d="M974.39,120.62c-17.25,0.63-33.91,1.52-50.06,2.62c21.7,2.17,42.35,4.79,61.85,7.69
		c17.92,2.66,34.89,5.55,50.74,8.55c12.36-1.24,24.96-2.24,37.8-2.95C1044.31,130.51,1010.39,124.85,974.39,120.62"/>
	<path class="st5" d="M880.63,120.79c-29.96,0-60.15,2.46-89.53,6.18c13.11,1.66,26.08,3.61,38.84,5.81
		c29.08-3.96,60.44-7.23,94.27-9.55c-7.46-0.74-15.09-1.4-22.8-2.02C894.51,120.93,887.57,120.79,880.63,120.79"/>
	<path class="st5" d="M701.57,120.79c-6.95,0-13.88,0.13-20.79,0.41c-7.71,0.62-15.33,1.28-22.8,2.02
		c33.84,2.32,65.19,5.6,94.27,9.55c12.76-2.2,25.73-4.15,38.84-5.81C761.73,123.26,731.53,120.79,701.57,120.79"/>
	<path class="st6" d="M829.94,132.79c-13.42,1.82-26.41,3.78-38.84,5.87c43.35,7.3,80.78,16.03,112.48,25.03
		c4.53-1.21,9.13-2.38,13.77-3.52c5.3-1.31,10.67-2.59,16.11-3.83C902,147.54,866.88,139.16,829.94,132.79 M903.58,163.68
		L903.58,163.68L903.58,163.68C903.58,163.68,903.58,163.68,903.58,163.68"/>
	<path class="st6" d="M1036.92,139.48l-0.07,0.01l0.05,0.01c-9.66,0.97-19.12,2.11-28.47,3.37c-26.22,3.52-51.25,8.09-74.97,13.47
		c10.58,2.95,20.72,5.95,30.4,8.93c0,0,0,0,0.01,0c5.65-1.44,11.38-2.83,17.17-4.16c12.08-2.79,24.46-5.35,37.1-7.64
		c16.51-2.98,33.49-5.5,50.91-7.46C1058.92,143.81,1048.19,141.62,1036.92,139.48"/>
	<path class="st7" d="M1069.06,146.01c-17.42,1.96-34.4,4.47-50.91,7.46C1034.66,150.48,1051.63,147.97,1069.06,146.01
		C1069.06,146.01,1069.06,146.01,1069.06,146.01 M981.05,161.1c-5.79,1.34-11.52,2.73-17.17,4.16
		C969.54,163.83,975.26,162.44,981.05,161.1"/>
	<path class="st8" d="M963.87,165.26C963.87,165.27,963.87,165.27,963.87,165.26C963.87,165.27,963.87,165.27,963.87,165.26
		c-9.87,2.51-19.56,5.15-29.01,7.93c59.39,19.34,93.15,38,104,44.52c10.68-4.67,21.65-9.11,32.91-13.24
		C1071.77,204.47,1028.71,185.24,963.87,165.26"/>
	<path class="st9" d="M963.87,165.26c64.84,19.98,107.9,39.2,107.9,39.2S1028.71,185.24,963.87,165.26"/>
	<path class="st10" d="M963.87,165.26C963.87,165.26,963.87,165.26,963.87,165.26C963.87,165.27,963.87,165.27,963.87,165.26
		C963.87,165.27,963.87,165.27,963.87,165.26"/>
	<path class="st6" d="M752.26,132.78c-36.94,6.37-72.06,14.77-103.52,23.55c5.36,1.22,10.65,2.48,15.88,3.78
		c4.72,1.17,9.39,2.35,14,3.58l-0.01,0.01h0.01c31.7-9.01,69.13-17.72,112.48-25.03C778.66,136.56,765.68,134.61,752.26,132.78"/>
	<path class="st6" d="M545.28,139.48c-11.28,2.13-22,4.32-32.14,6.52c37.17,4.17,72.31,10.9,105.19,19.26
		c9.68-2.98,19.83-5.98,30.4-8.93c-23.69-5.38-48.68-9.94-74.86-13.46c-9.38-1.26-18.88-2.41-28.57-3.38l0.06-0.01L545.28,139.48"/>
	<path class="st11" d="M821.12,215.94c-10.04,4.64-20.87,9.25-29.96,13.89l-0.06,0.04h0.03l0.07,0.04c1.89,1.01,3.77,1.98,5.62,2.95
		c3.8,2.02,7.55,4.03,11.17,6.02c3.5,1.9,6.92,3.8,10.25,5.73c0.13,0.04,0.24,0.12,0.38,0.2c3.32,1.85,6.58,3.71,9.73,5.61l0.1,0.04
		c3.22,1.85,6.34,3.72,9.36,5.53c1.98,1.21,3.95,2.38,5.86,3.55c2.02,1.25,3.97,2.46,5.89,3.63c3.22,2.02,6.3,4,9.25,5.89
		c2.5,1.62,4.93,3.19,7.27,4.77c18.73,12.35,30.79,21.58,35.11,25.1c8.9-6.7,18.22-13.44,28.05-20.14
		C917.95,270.36,880.45,243.87,821.12,215.94"/>
	<path class="st12" d="M791.13,229.86h-0.03l0,0l0.07,0.04h0.03c1.89,1.01,3.74,1.98,5.59,2.94c3.8,2.02,7.54,4.04,11.17,6.02
		c3.49,1.9,6.92,3.8,10.25,5.73c0.13,0.05,0.24,0.12,0.38,0.21c3.32,1.85,6.58,3.71,9.73,5.61l0.1,0.03
		c3.22,1.86,6.34,3.71,9.35,5.54c1.99,1.21,3.94,2.38,5.86,3.55c2.02,1.25,3.98,2.46,5.9,3.64c3.22,2.02,6.31,3.99,9.25,5.89
		c1.71,1.11,3.35,2.19,4.95,3.24c-1.6-1.05-3.24-2.13-4.95-3.24c2.44,1.57,4.81,3.11,7.09,4.65c0.06,0.04,0.12,0.08,0.18,0.12
		c18.75,12.35,30.81,21.6,35.13,25.12c0.01,0,0.01-0.01,0.02-0.01c-4.33-3.52-16.38-12.76-35.11-25.1
		c-2.34-1.58-4.77-3.15-7.27-4.77c-2.95-1.89-6.03-3.88-9.25-5.89c-1.92-1.17-3.87-2.38-5.89-3.63c-1.92-1.17-3.88-2.34-5.86-3.55
		c-3.02-1.81-6.14-3.68-9.36-5.53l-0.1-0.04c-3.15-1.9-6.41-3.76-9.73-5.61c-0.14-0.08-0.25-0.16-0.38-0.2
		c-3.32-1.93-6.75-3.84-10.25-5.73c-3.63-1.98-7.37-4-11.17-6.02c-1.85-0.97-3.73-1.94-5.62-2.95L791.13,229.86"/>
	<path class="st13" d="M863.74,272.32c0.78,0.51,1.55,1.02,2.31,1.52c-0.06-0.04-0.12-0.08-0.18-0.12
		C865.17,273.25,864.46,272.79,863.74,272.32"/>
	<path class="st14" d="M858.79,269.07c1.71,1.11,3.35,2.19,4.95,3.24c0.72,0.47,1.43,0.94,2.13,1.4
		C863.6,272.18,861.23,270.64,858.79,269.07"/>
	<path class="st11" d="M761.01,215.94c-59.33,27.94-96.83,54.43-108.13,62.86c9.84,6.71,19.19,13.45,28.07,20.15
		c8.64-6.99,48.26-36.95,110.02-69.05l0.07-0.04l-0.07-0.04C781.88,225.18,771.04,220.58,761.01,215.94"/>
	<path class="st8" d="M903.58,163.69c-32.6,8.64-62.41,18.73-89.24,29.23c-1.47,0.53-2.95,1.13-4.39,1.7
		c-6.44,2.54-12.71,5.09-18.81,7.68v0.07c10.55,4.41,20.56,9.09,30.03,13.57l0.01-0.01l-0.02-0.01
		c10.27-4.73,21.08-9.43,32.31-14.04c9.85-4.05,20.04-8.03,30.6-11.88c16.15-5.91,33.06-11.57,50.77-16.79
		C925.11,170.01,914.68,166.83,903.58,163.69"/>
	<path class="st15" d="M853.47,201.87c-11.23,4.61-22.04,9.31-32.31,14.04l0.02,0.01C831.44,211.19,842.25,206.49,853.47,201.87"/>
	<path class="st8" d="M678.61,163.69c-11.08,3.14-21.53,6.33-31.25,9.52c18,5.29,35.17,11.05,51.55,17.07
		c10.15,3.72,19.97,7.55,29.46,11.45c0.49,0.2,0.98,0.4,1.47,0.6c4.87,2.01,9.67,4.04,14.37,6.08c5.76,2.49,11.37,5,16.84,7.52h0
		l-0.02,0.01l0.02,0.01c9.46-4.48,19.47-9.16,30.02-13.56v-0.08c-6.1-2.59-12.37-5.13-18.81-7.68c-1.44-0.56-2.91-1.17-4.39-1.69
		C741.02,182.42,711.21,172.32,678.61,163.69 M729.9,202.35c2.49,1.03,4.96,2.06,7.41,3.09
		C734.86,204.41,732.39,203.38,729.9,202.35"/>
	<path class="st5" d="M728.37,201.72c0.51,0.21,1.02,0.42,1.54,0.63c-0.02-0.01-0.05-0.02-0.07-0.03
		C729.35,202.12,728.86,201.92,728.37,201.72 M737.31,205.44c8.17,3.46,16.09,6.96,23.71,10.48h0l0.02-0.01
		c-5.46-2.52-11.08-5.03-16.84-7.52C741.93,207.41,739.63,206.43,737.31,205.44"/>
	<path class="st16" d="M729.83,202.32c0.02,0.01,0.05,0.02,0.07,0.03c2.49,1.03,4.96,2.06,7.41,3.09c2.32,0.98,4.62,1.97,6.89,2.95
		C739.5,206.36,734.71,204.33,729.83,202.32 M761.04,215.92l-0.02,0.01h0L761.04,215.92C761.04,215.92,761.04,215.92,761.04,215.92"
		/>
	<path class="st8" d="M618.33,165.26c-64.84,19.98-107.9,39.2-107.9,39.2c11.26,4.14,22.23,8.57,32.91,13.24
		c10.85-6.51,44.61-25.17,104-44.52C637.89,170.41,628.2,167.78,618.33,165.26"/>
	<path class="st17" d="M477.32,142.83c-62.08,13.71-104.79,27.66-110.57,29.58c11.97,0.96,23.74,2.33,35.32,4.06
		c11.13-3.96,50.73-17.37,111.06-30.47C501.39,144.7,489.46,143.62,477.32,142.83"/>
	<path class="st5" d="M1122.35,135.21c-16.21,0-32.09,0.46-47.62,1.31c10.48,2.08,20.56,4.2,30.15,6.31
		c15.67-1.01,31.65-1.54,47.93-1.54c8.08,0,16.23,0.13,24.46,0.4c13.93,0.46,28.06,1.31,42.39,2.61
		c-8.87-2.13-18.12-4.25-27.76-6.31C1168.09,136.09,1144.89,135.21,1122.35,135.21"/>
	<path class="st18" d="M1177.27,141.7c13.94,0.46,28.09,1.32,42.43,2.61c-0.01,0-0.03-0.01-0.04-0.01
		C1205.33,143.01,1191.19,142.15,1177.27,141.7"/>
	<path class="st6" d="M1104.88,142.83c-12.14,0.78-24.07,1.86-35.81,3.17c60.32,13.1,99.92,26.51,111.06,30.47c-0.01,0-0.01,0,0,0
		c11.57-1.73,23.35-3.1,35.31-4.06c-5.28-1.76-41.39-13.56-94.95-26.04c-0.02-0.01-0.06-0.01-0.08-0.02c0,0-0.01,0-0.01,0
		c-3.4-0.79-6.87-1.59-10.41-2.38c-0.01,0-0.02-0.01-0.03-0.01c-0.02-0.01-0.04-0.01-0.06-0.01
		C1108.24,143.58,1106.57,143.21,1104.88,142.83"/>
	<path class="st19" d="M1109.9,143.95c0.02,0.01,0.04,0.01,0.07,0.01C1109.94,143.96,1109.92,143.96,1109.9,143.95 M1109.99,143.97
		c3.54,0.8,7.01,1.59,10.41,2.38C1117,145.57,1113.53,144.77,1109.99,143.97 M1120.41,146.36c0.03,0.01,0.06,0.01,0.08,0.02
		C1120.47,146.37,1120.45,146.37,1120.41,146.36"/>
	<path class="st7" d="M1069.07,146.01C1069.06,146.01,1069.06,146.01,1069.07,146.01c60.32,13.1,99.92,26.51,111.05,30.47h0.01
		C1168.99,172.52,1129.39,159.11,1069.07,146.01"/>
	<path class="st1" d="M596,130.93c-17.89,2.66-34.82,5.55-50.65,8.56c9.67,0.97,19.15,2.13,28.52,3.39
		c26.18,3.5,51.18,8.07,74.87,13.45c31.46-8.78,66.58-17.17,103.52-23.55c-29.08-3.95-60.43-7.23-94.27-9.55l-0.11,0.01l0.12,0.02
		C636.24,125.41,615.55,128.03,596,130.93"/>
	<path class="st1" d="M933.45,156.33c23.73-5.39,48.76-9.96,74.98-13.47c9.33-1.25,18.78-2.41,28.42-3.38
		c-15.83-3.01-32.77-5.89-50.67-8.55c-19.55-2.9-40.22-5.52-61.98-7.68l0.13-0.01l-0.11-0.01c-33.84,2.32-65.2,5.6-94.27,9.56
		C866.88,139.16,902,147.54,933.45,156.33"/>
	<path class="st20" d="M934.84,173.2l0.03,0.02c-17.72,5.2-34.65,10.85-50.81,16.77c-10.55,3.87-20.75,7.84-30.59,11.89
		c-11.23,4.61-22.04,9.31-32.29,14.05c59.32,27.96,96.81,54.44,108.12,62.86c31.81-21.75,68.53-43.13,109.56-61.08
		c-10.85-6.51-44.61-25.17-104-44.51L934.84,173.2"/>
	<path class="st20" d="M698.91,190.27c-16.4-6.02-33.58-11.78-51.59-17.06l0.04-0.01l-0.03-0.01c-59.39,19.34-93.15,38-104,44.51
		c41.04,17.94,77.75,39.33,109.56,61.08c11.31-8.43,48.8-34.9,108.13-62.86c-10.37-4.79-21.3-9.54-32.66-14.21
		C718.88,197.82,709.06,194,698.91,190.27"/>
	<path class="st1" d="M362.51,144.31c-63.53,15.26-105.75,31.15-105.75,31.15c38.21-5.21,74.93-5.86,110-3.04
		c5.78-1.92,48.48-15.87,110.56-29.58C440.7,140.48,402.34,140.71,362.51,144.31"/>
	<path class="st2" d="M791.1,126.98c36.18-4.57,73.61-7.25,110.31-5.76c-34.6-2.8-71.52-4.43-110.31-4.24
		c-38.8-0.2-75.71,1.44-110.32,4.24C717.48,119.73,754.92,122.41,791.1,126.98"/>
	<path class="st3" d="M678.62,163.68c32.6,8.64,62.41,18.74,89.25,29.23c1.47,0.53,2.94,1.13,4.38,1.7
		c6.45,2.55,12.72,5.09,18.82,7.68v0.03h0.07v-0.03c6.1-2.58,12.37-5.13,18.82-7.68c1.44-0.57,2.91-1.17,4.39-1.7
		c26.84-10.5,56.65-20.59,89.25-29.23c-31.71-9.01-69.13-17.72-112.48-25.04C747.74,145.96,710.32,154.68,678.62,163.68"/>
	<path class="st2" d="M507.2,136.53c30.42-6.02,64.34-11.68,100.34-15.91c-31.28-1.14-64.39-1.45-99.36-0.77
		c-0.09,0-0.17,0-0.26,0.02c-42.27,3.79-82.49,10.57-117.88,18.13C430.96,134.72,470.08,134.47,507.2,136.53"/>
	<path class="st3" d="M618.33,165.26c-32.87-8.35-68.02-15.09-105.19-19.26c-60.34,13.1-99.93,26.51-111.06,30.47
		c38.44,5.77,74.66,15.57,108.35,27.99C510.42,204.47,553.49,185.24,618.33,165.26"/>
	<path class="st21" d="M814.12,319.04c-7.92,4.77-15.38,10.33-22.28,16.59c-6.91-6.26-14.37-11.8-22.28-16.59
		c-5.67-3.32-18.04-7.07-27.88-3.22c0,0,13.1-1.17,30.51,10.94c5.48,3.87,10.74,8.07,15.74,12.6c-2.59,2.5-5.23,5.21-7.86,8.14
		l-0.24-0.26c-0.15-0.16-0.39-0.16-0.54,0h-0.01c-0.08,0.1-0.12,0.23-0.1,0.36c-0.17-0.16-0.31-0.35-0.39-0.57
		c0.25-0.7,0.04-1.48-0.5-1.95c-0.61-0.66-1.61-0.67-2.24-0.04l-0.03,0.04c-0.56,0.72-0.46,1.77,0.22,2.35l0.02,0.01
		c0.42,0.41,1,0.57,1.56,0.45c0.21,0.35,0.26,0.78,0.11,1.16c-1.44,1.98-3.69,3.11-6.07,3.03c-1.91-0.05-3.69-0.98-4.89-2.54
		c-0.91-1.14-2.54-1.28-3.62-0.32c-0.12,0.1-0.22,0.2-0.3,0.32c-2.94,4.39,2.99,8.47,7.21,8.47c4.08-0.06,7.97-1.73,10.92-4.65
		c0.45-0.54,0.77-0.75,1.16-0.56c0.39,0.2,0.36,0.49,0.45,0.85c-0.07,0.61,0.16,1.21,0.6,1.59c0.57,0.66,1.54,0.73,2.18,0.13
		c0.64-0.59,0.69-1.6,0.13-2.27c-0.08-0.1-0.18-0.19-0.28-0.26c-0.35-0.34-0.8-0.51-1.28-0.49h-0.18h0.18
		c0.16-0.13,0.17-0.38,0.03-0.54l-0.03-0.03l-0.59-0.6c1.06-1.11,4.06-4.24,8.31-8.11c4.19,3.92,7.23,7,8.28,8.11l-0.59,0.6
		c-0.14,0.16-0.14,0.4,0,0.57c0.06,0.01,0.12,0.01,0.18,0h-0.16c-0.47-0.03-0.93,0.15-1.27,0.49c-0.7,0.56-0.84,1.61-0.3,2.34
		l0.05,0.07c0.64,0.65,1.66,0.65,2.3,0c0.42-0.4,0.66-0.99,0.61-1.58c0-0.36,0.2-0.74,0.42-0.85c0.22-0.1,0.71,0,1.14,0.55
		c2.97,2.93,6.88,4.59,10.96,4.66c4.2,0,10.13-4.09,7.21-8.47c-0.92-1.13-2.54-1.27-3.63-0.32c-0.11,0.1-0.21,0.2-0.3,0.32
		c-1.19,1.56-2.98,2.49-4.88,2.55c-2.37,0.07-4.64-1.06-6.08-3.03c-0.12-0.39-0.06-0.81,0.14-1.16c0.55,0.13,1.13-0.04,1.54-0.44
		c0.69-0.59,0.8-1.64,0.26-2.37c-0.62-0.66-1.63-0.68-2.26-0.03l-0.03,0.03c-0.54,0.47-0.74,1.25-0.51,1.95
		c-0.08,0.22-0.22,0.41-0.39,0.57c0.03-0.13-0.01-0.26-0.1-0.36c-0.15-0.16-0.39-0.16-0.54,0l-0.25,0.26
		c-2.7-2.92-5.32-5.64-7.84-8.13c4.99-4.49,10.22-8.69,15.66-12.56c17.42-12.09,30.53-10.93,30.53-10.93
		C832.11,312.01,819.73,315.76,814.12,319.04"/>
	<path class="st21" d="M818.28,271.17c-1.29-3.04-3.11-5.22-5.41-6.49l-0.14-0.08c-3.1-1.65-11.12,0.22-15.26,1.98
		c2.44-2.35,6.66-6.1,8.56-7.06c3.71-1.88,6.49-2.13,6.52-2.14c0.5-0.03,0.93-0.4,1.07-0.9c0.14-0.51-0.03-1.05-0.44-1.37
		c-0.26-0.19-6.19-4.69-11.83-3.15c-2.77,0.76-7.1,7-8.8,10.64c-0.83-4.23-2.53-8.14-5.17-9.9c-6.37-4.24-15.41-0.87-15.78-0.72
		c-0.51,0.19-0.83,0.72-0.79,1.29c0.05,0.56,0.44,1.03,0.97,1.14c0.1,0.02,8.58,0.76,14.34,11.92c-4.37-2.94-12.13-4.95-16.36-2.97
		c-2.57,1.2-4.83,3.3-6.53,6.05c-1.84,2.98-3.05,6.67-3.58,10.98c-0.07,0.53,0.19,1.03,0.63,1.28l0.07,0.03
		c0.49,0.23,1.06,0.09,1.4-0.33c6.91-8.36,14.84-11.81,22.31-9.86c-4.41,1.18-11.34,6.23-13.14,10.07
		c-3.11,6.63-1.85,15.66,3.39,24.14c0.11,0.19,0.27,0.34,0.45,0.43c0.24,0.14,0.53,0.18,0.81,0.12c0.49-0.11,0.87-0.52,0.95-1.03
		c0.09-0.6,0.18-1.18,0.27-1.77c1.57-10.33,3.9-19.74,10.93-25.88l1.42,43.03h4.94l1.43-42.81h0.07c6.5,6.08,8.45,13.64,9.81,26.99
		c0.04,0.42,0.28,0.78,0.64,0.98c0.08,0.05,0.17,0.08,0.26,0.1c0.49,0.13,1-0.06,1.29-0.49c5.22-7.77,6.92-15.11,4.81-20.68
		c-1.45-3.81-8.38-9.98-13.29-11.64c6.68-0.57,14.51,1.39,19.09,11.55c0.24,0.54,0.8,0.83,1.36,0.7c0.55-0.14,0.94-0.65,0.94-1.24
		C820.45,278.86,819.7,274.53,818.28,271.17"/>
	<g>
		<defs>
			<rect id="SVGID_00000162346809582997247550000018401287929411926685_" x="317.55" y="573.56" width="18.91" height="30.2"/>
		</defs>
		<clipPath id="SVGID_00000085961886052474848490000010514737269212157842_">
			<use xlink:href="#SVGID_00000162346809582997247550000018401287929411926685_"  style="overflow:visible;"/>
		</clipPath>
		<g style="clip-path:url(#SVGID_00000085961886052474848490000010514737269212157842_);">
			<path class="st23" d="M326.37,573.72c-4.87,0.01-8.08,2.85-8.08,6.71c0,1.56,0.49,2.85,1.45,4.22c1.46,2.12,3.87,3.68,7.61,6.33
				c3.29,2.35,4.78,4.23,4.78,6.39c0,2.76-2.24,4.73-5.44,4.73c-3.82,0-6.5-2.39-7.6-6.61h-1.32l1.1,7.95h1.05
				c0.31-0.36,0.7-0.5,1.19-0.5c1.09,0,2.75,0.82,5.84,0.82h0.04c5.63,0,9.44-3.21,9.44-7.94c0-3.58-2.16-6.3-6.98-9.46
				c-4.22-2.75-6.9-4.64-6.9-7.39c0-2.02,1.49-3.77,4.3-3.77c3.12,0,5.8,2.16,7.16,5.83h1.32l-0.97-7.12h-1.1
				c-0.35,0.37-0.57,0.56-1.27,0.56C330.81,574.46,328.92,573.72,326.37,573.72"/>
		</g>
	</g>
	<path class="st23" d="M366.92,573.67h-1.18c-0.18,0.6-0.53,0.78-2.51,0.78l-19.19,0.01c-1.54,0-2.33-0.05-2.59-0.78h-1.18
		l-0.79,7.9h1.27c0.58-3.53,0.84-5.05,3.65-5.06h6.76l0.01,21.82c0,2.89-0.83,3.44-5.09,3.44v1.25l15.06-0.01v-1.24
		c-4.3,0-5.09-0.36-5.09-3.44l-0.01-21.81l6.8-0.01c2.82,0,3.08,1.56,3.61,5.06h1.27L366.92,573.67"/>
	<path class="st23" d="M386.36,573.71h-4.91l0.35,1.15L374.07,597c-1.4,4.04-1.75,4.73-4.95,4.78v1.25l10.71-0.01v-1.24h-1.06
		c-2.02,0-3.34-0.28-3.34-1.75c0-0.87,0.31-1.61,0.79-2.98c0.53-1.61,1.27-3.54,1.8-5.1l10.06-0.01l2.24,6.06
		c0.31,0.87,0.49,1.56,0.49,2.07c0,1.34-0.92,1.7-4.43,1.71v1.24l13.04-0.01v-1.24c-3.03,0-3.26-0.64-4.88-5.24L386.36,573.71
		 M378.85,589.64l4.17-11.62l4.22,11.62H378.85"/>
	<path class="st23" d="M428.24,573.65h-1.18c-0.18,0.59-0.53,0.78-2.5,0.78l-19.19,0.01c-1.54,0-2.33-0.05-2.59-0.78h-1.18
		l-0.79,7.9h1.28c0.57-3.53,0.83-5.06,3.64-5.06h6.76l0.01,21.82c0,2.89-0.83,3.44-5.09,3.44V603h15.07v-1.24
		c-4.31,0-5.1-0.37-5.1-3.45l-0.01-21.82h6.8c2.82,0,3.08,1.56,3.61,5.06h1.27L428.24,573.65"/>
	<path class="st23" d="M452.86,574.42l-22.44,0.01v1.25h0.11c3.25,0,4.32,0.3,4.32,3.21l0.01,19.8c0,2.44-0.87,3.08-4.43,3.08v1.24
		l23.8-0.01l0.66-7.21h-1.18c-1.14,4.59-2.37,5.14-6.19,5.14h-5.4c-1.98,0-2.37-0.56-2.37-3.07l-0.01-8.59l6.98-0.01
		c2.33,0,2.86,0.64,3.12,3.68h1.18v-9.23h-1.18c-0.26,2.71-0.44,3.49-3.08,3.49l-7.02,0.01v-10.71h7.99c2.81,0,3.38,0.27,4.35,4.82
		h1.18L452.86,574.42"/>
	<path class="st23" d="M481.35,574.04c-2.81,0-6.81,0.32-10.63,0.37v1.24h0.58c2.94,0,3.64,0.83,3.64,4.59l0.01,16.72
		c0,3.81-0.57,4.68-3.69,4.77v1.25l13.53-0.01v-1.24c-3.87-0.09-4.97-0.64-4.97-4.18v-6.48c1.27,0.23,2.42,0.32,3.6,0.32
		c6.15,0,10.46-3.68,10.45-9.09C493.86,576.56,490.13,574.04,481.35,574.04 M481.7,589.93c-0.66,0-1.18-0.09-1.89-0.23v-14.24
		c0.7-0.09,1.45-0.13,2.15-0.13h0.02c4.3,0,6.57,2.67,6.57,6.89C488.56,586.76,485.7,589.93,481.7,589.93"/>
	<g>
		<defs>
			<rect id="SVGID_00000181803643343940144560000016882974798699736507_" x="495.19" y="573.56" width="35.12" height="30.2"/>
		</defs>
		<clipPath id="SVGID_00000095298410035152359990000003552519850101700228_">
			<use xlink:href="#SVGID_00000181803643343940144560000016882974798699736507_"  style="overflow:visible;"/>
		</clipPath>
		<g style="clip-path:url(#SVGID_00000095298410035152359990000003552519850101700228_);">
			<path class="st23" d="M506.31,573.99c-4.97,0.01-9.97,0.42-10.98,0.42v1.24c3.29,0.05,4.08,0.51,4.08,3.53l0.01,18.83
				c0,2.98-0.66,3.72-3.55,3.72h-0.53v1.24h13.44v-1.24h-0.7c-3.21,0-3.78-0.69-3.78-4.28v-6.33c0.6,0.06,1.2,0.09,1.79,0.09
				c0.7,0,1.41-0.03,2.12-0.09c1.85,1.34,4.05,3.63,6.37,6.11c4.44,4.73,6.55,6.25,13.4,6.25l2.06-0.01v-1.28
				c-3.64-0.36-6.89-2.48-10.5-6.28c-3.65-3.87-5.66-5.84-6.2-6.21c3.7-1.6,5.54-4.09,5.54-7.49c0-2.71-1.23-5.09-3.95-6.56
				C512.9,574.53,510.62,573.99,506.31,573.99 M505.75,589.97c-0.58,0-1.06-0.09-1.45-0.14v-14.37c0.35-0.09,1.49-0.18,2.06-0.18
				c4.87,0,7.21,2.75,7.21,7.39c0,2.21-0.44,3.86-1.5,5.06C510.53,589.47,507.59,589.92,505.75,589.97"/>
		</g>
	</g>
	<g>
		<defs>
			<rect id="SVGID_00000160881926718905847440000016706504398353756832_" x="531.66" y="573.56" width="32.42" height="30.2"/>
		</defs>
		<clipPath id="SVGID_00000074424582623811263230000012690905381195876226_">
			<use xlink:href="#SVGID_00000160881926718905847440000016706504398353756832_"  style="overflow:visible;"/>
		</clipPath>
		<g style="clip-path:url(#SVGID_00000074424582623811263230000012690905381195876226_);">
			<path class="st23" d="M547.73,573.65h-0.02c-9.36,0-16.03,6.66-16.03,15.8c0.01,8.41,6.9,14.24,15.86,14.24
				c9.57-0.01,16.2-6.94,16.19-15.53C563.74,579.76,557.38,573.65,547.73,573.65 M548.23,602.21c-2.98,0-5.92-1.38-7.93-3.81
				c-2.02-2.43-3.3-5.78-3.3-10.19c0-8.26,4.26-13.09,10.32-13.1c6.55,0,11.12,5.92,11.12,14.19c0,7.85-4.21,12.91-10.18,12.91
				H548.23"/>
		</g>
	</g>
	<path class="st23" d="M577.56,574.01c-2.81,0-6.81,0.32-10.63,0.37v1.24h0.58c2.94,0,3.64,0.83,3.64,4.6l0.01,16.72
		c0,3.81-0.57,4.68-3.69,4.77v1.25l13.53-0.01v-1.24c-3.87-0.09-4.97-0.64-4.97-4.18v-6.48c1.27,0.23,2.42,0.32,3.6,0.32
		c6.14-0.01,10.46-3.68,10.45-9.1C590.08,576.53,586.34,574.01,577.56,574.01 M577.91,589.9c-0.66,0-1.18-0.09-1.89-0.23v-14.24
		c0.7-0.09,1.45-0.13,2.15-0.13h0.02c4.3,0,6.57,2.67,6.57,6.89C584.77,586.72,581.91,589.9,577.91,589.9"/>
	<path class="st23" d="M613.55,574.36l-22.45,0.01v1.25h0.11c3.25,0,4.33,0.3,4.33,3.21l0.01,19.79c0,2.44-0.87,3.09-4.42,3.09v1.24
		l23.8-0.01l0.65-7.22h-1.18c-1.14,4.6-2.37,5.14-6.19,5.15h-5.36c-2.02,0-2.41-0.56-2.41-3.08l-0.01-8.59h7.02
		c2.3,0,2.82,0.66,3.08,3.67h1.19l-0.01-9.22h-1.18c-0.26,2.71-0.44,3.49-3.07,3.49h-7.03v-10.7h8.08c2.73,0,3.3,0.32,4.25,4.82
		h1.19L613.55,574.36"/>
	<g>
		<defs>
			<rect id="SVGID_00000145758117514981820550000003950543558872981416_" x="616.77" y="573.56" width="35.12" height="30.2"/>
		</defs>
		<clipPath id="SVGID_00000023263827161653012130000008356819806578900129_">
			<use xlink:href="#SVGID_00000145758117514981820550000003950543558872981416_"  style="overflow:visible;"/>
		</clipPath>
		<g style="clip-path:url(#SVGID_00000023263827161653012130000008356819806578900129_);">
			<path class="st23" d="M627.84,573.95c-4.96,0-9.97,0.41-10.98,0.42v1.24c3.3,0.04,4.08,0.5,4.08,3.53l0.01,18.83
				c0,2.98-0.66,3.72-3.55,3.72h-0.53v1.24l13.44-0.01v-1.24h-0.75c-3.17,0-3.74-0.7-3.74-4.27v-6.34c0.59,0.06,1.16,0.08,1.74,0.08
				c0.72,0,1.44-0.04,2.17-0.09c1.85,1.33,4.04,3.63,6.37,6.11c4.43,4.72,6.54,6.24,13.36,6.24h2.1v-1.28
				c-3.64-0.36-6.9-2.48-10.5-6.29c-3.65-3.86-5.66-5.83-6.2-6.2c3.69-1.61,5.53-4.09,5.53-7.49c0-2.71-1.23-5.09-3.95-6.57
				C634.43,574.49,632.15,573.95,627.84,573.95 M627.27,589.92c-0.57,0-1.05-0.09-1.45-0.13v-14.37c0.35-0.09,1.49-0.18,2.06-0.18
				c4.87,0,7.2,2.75,7.2,7.39c0,2.21-0.44,3.86-1.5,5.06C632.06,589.42,629.12,589.88,627.27,589.92"/>
		</g>
	</g>
	<path class="st23" d="M679.17,573.56h-1.18c-0.17,0.59-0.53,0.78-2.5,0.78l-19.19,0.01c-1.54,0-2.33-0.05-2.59-0.78h-1.18
		l-0.79,7.9h1.27c0.58-3.54,0.84-5.06,3.65-5.06l6.76-0.01l0.01,21.82c0,2.89-0.83,3.44-5.09,3.44v1.24l15.06-0.01v-1.24h-0.11
		c-4.2,0-4.98-0.39-4.98-3.44l-0.01-21.82h6.8c2.81,0,3.08,1.56,3.61,5.06l1.27-0.01L679.17,573.56"/>
	<path class="st23" d="M694.56,574.33H682.3v1.25c2.68,0,3.61,0.64,3.61,3.26l0.01,19.11c0,2.94-0.53,3.71-3.6,3.71v1.24h12.25
		v-1.24h-0.43c-2.64,0-3.34-0.87-3.34-4.05l-0.01-18.23c0-3.03,0.79-3.82,3.78-3.82V574.33"/>
	<path class="st23" d="M718.86,574.32l-22.44,0.01v1.25c3.34,0,4.43,0.27,4.43,3.21l0.01,19.8c0,2.44-0.87,3.08-4.43,3.08v1.25
		l23.8-0.01l0.65-7.21h-1.18c-1.14,4.59-2.37,5.14-6.2,5.14h-5.4c-1.98,0-2.37-0.56-2.37-3.07l-0.01-8.59l6.98-0.01
		c2.33,0,2.86,0.64,3.12,3.68h1.19l-0.01-9.23h-1.18c-0.26,2.71-0.44,3.49-3.07,3.49l-7.03,0.01v-10.7l7.99-0.01
		c2.81,0,3.38,0.27,4.34,4.82h1.19L718.86,574.32"/>
	<g>
		<defs>
			<rect id="SVGID_00000047768463018393241920000003432180664385684876_" x="722.81" y="573.56" width="19.59" height="30.2"/>
		</defs>
		<clipPath id="SVGID_00000034783683972862477070000000782706974168278970_">
			<use xlink:href="#SVGID_00000047768463018393241920000003432180664385684876_"  style="overflow:visible;"/>
		</clipPath>
		<g style="clip-path:url(#SVGID_00000034783683972862477070000000782706974168278970_);">
			<path class="st23" d="M732.05,573.59c-4.87,0-8.08,2.85-8.08,6.71c0,1.56,0.49,2.85,1.45,4.22c1.45,2.11,3.87,3.68,7.6,6.33
				c3.3,2.35,4.79,4.22,4.79,6.39c0,2.75-2.24,4.73-5.44,4.73c-3.82,0-6.5-2.39-7.6-6.61h-1.32l1.1,7.94h1.05
				c0.31-0.36,0.7-0.51,1.19-0.51c1.1,0,2.76,0.83,5.88,0.83c5.62,0,9.44-3.22,9.44-7.95c0-3.58-2.16-6.29-6.98-9.46
				c-4.22-2.75-6.9-4.64-6.9-7.39c0-2.02,1.49-3.77,4.3-3.77c3.12,0,5.8,2.16,7.16,5.83h1.32l-0.97-7.12h-1.1
				c-0.35,0.36-0.57,0.55-1.27,0.55C736.49,574.32,734.6,573.59,732.05,573.59"/>
		</g>
	</g>
	<g>
		<defs>
			<rect id="SVGID_00000102517211874037394600000003038969621411427463_" x="760.64" y="573.56" width="30.39" height="30.2"/>
		</defs>
		<clipPath id="SVGID_00000063616430575960667620000000728812954337951634_">
			<use xlink:href="#SVGID_00000102517211874037394600000003038969621411427463_"  style="overflow:visible;"/>
		</clipPath>
		<g style="clip-path:url(#SVGID_00000063616430575960667620000000728812954337951634_);">
			<path class="st23" d="M776.57,573.57c-4.48,0-7.78,1.28-10.32,3.44c-3.42,2.9-5.14,7.81-5.14,12.22
				c0.01,8.67,5.98,14.37,14.83,14.37h0.02c4.31,0,7.78-1.15,11.77-2.81v-6.2c0-2.39,0.83-3.22,3.03-3.26v-1.24h-13.13v1.25
				c3.95,0,5.23,0.22,5.23,3.4v5.64c-1.75,0.97-3.69,1.52-5.63,1.52c-3.15,0-6.11-1.38-8.08-3.95c-1.72-2.25-2.72-5.33-2.73-9.22
				c0-8.09,4.22-13.69,10.94-13.7c4.57,0,7.68,2.76,8.7,7.72l1.32-0.01l-0.01-8.45h-1.27c-0.22,0.36-0.62,0.51-1.14,0.51
				C783.69,574.81,780.65,573.57,776.57,573.57"/>
		</g>
	</g>
	<path class="st23" d="M814.28,574.29l-22.44,0.01v1.25h0.11c3.25,0,4.32,0.3,4.32,3.21l0.01,19.8c0,2.44-0.87,3.08-4.43,3.08v1.24
		l23.8-0.01l0.65-7.21h-1.18c-1.14,4.59-2.37,5.14-6.19,5.14l-5.36,0.01c-2.02,0-2.41-0.56-2.41-3.08l-0.01-8.59l6.98-0.01
		c2.33,0,2.85,0.65,3.12,3.68h1.19l-0.01-9.23h-1.18c-0.26,2.71-0.44,3.49-3.07,3.49l-7.03,0.01v-10.71h7.99
		c2.81,0,3.38,0.28,4.35,4.82h1.19L814.28,574.29"/>
	<path class="st23" d="M851.63,574.28H841v1.25c3.61,0,4.35,0.36,4.35,3.71l0.01,16.67l-19.59-21.62h-7.95v1.25
		c1.75,0.14,2.67,0.55,3.69,1.47l0.01,20.85c0,3.03-0.83,3.77-3.3,3.77h-0.39v1.25l10.49-0.01v-1.24c-0.21,0-0.48,0.04-0.78,0.04
		c-3.17,0-3.6-1.05-3.6-4.73l-0.01-17.45l21.48,23.65h2.37l-0.01-23.75c0-3.21,0.92-3.86,3.87-3.86V574.28"/>
	<path class="st23" d="M875.64,574.27l-22.44,0.01v1.25c3.34,0,4.43,0.27,4.43,3.21l0.01,19.8c0,2.43-0.87,3.08-4.44,3.08v1.24
		l23.8-0.01l0.66-7.22h-1.18c-1.14,4.6-2.37,5.15-6.19,5.15l-5.36,0.01c-2.02,0-2.41-0.55-2.41-3.09l-0.01-8.58l6.98-0.01
		c2.33,0,2.85,0.64,3.12,3.68h1.18v-9.23h-1.18c-0.26,2.71-0.44,3.49-3.08,3.49h-7.02v-10.7h7.99c2.81,0,3.38,0.27,4.35,4.82h1.18
		L875.64,574.27"/>
	<g>
		<defs>
			<rect id="SVGID_00000144299035040994302020000015003321449936155016_" x="878.84" y="573.56" width="35.12" height="30.2"/>
		</defs>
		<clipPath id="SVGID_00000032614992641765767690000008370718909992112789_">
			<use xlink:href="#SVGID_00000144299035040994302020000015003321449936155016_"  style="overflow:visible;"/>
		</clipPath>
		<g style="clip-path:url(#SVGID_00000032614992641765767690000008370718909992112789_);">
			<path class="st23" d="M889.93,573.85c-4.97,0-9.97,0.42-10.98,0.42v1.24c3.29,0.05,4.08,0.51,4.08,3.53l0.01,18.83
				c0,2.98-0.65,3.72-3.55,3.72h-0.53v1.24h13.44v-1.24h-0.7c-3.21,0-3.78-0.69-3.78-4.28v-6.34c0.6,0.06,1.19,0.09,1.79,0.09
				c0.7,0,1.41-0.03,2.12-0.09c1.85,1.34,4.05,3.63,6.38,6.11c4.42,4.72,6.53,6.24,13.36,6.24h2.1v-0.5h-0.28v-0.81
				c-3.53-0.44-6.71-2.54-10.22-6.26c-3.65-3.85-5.66-5.83-6.2-6.2c3.7-1.6,5.54-4.09,5.54-7.49c0-2.71-1.23-5.09-3.95-6.56
				C896.52,574.4,894.24,573.85,889.93,573.85 M889.36,589.84c-0.58,0-1.06-0.1-1.45-0.14v-14.37c0.35-0.09,1.49-0.18,2.06-0.18
				c4.88,0,7.21,2.75,7.21,7.39c0,2.21-0.44,3.86-1.5,5.06C894.15,589.33,891.2,589.79,889.36,589.84"/>
		</g>
	</g>
	<path class="st23" d="M930.63,573.52l-4.92,0.01l0.35,1.15l-7.72,22.14c-1.41,4.05-1.75,4.73-4.96,4.78v1.24h10.72v-1.24h-1.06
		c-2.02,0-3.34-0.28-3.34-1.75c0-0.87,0.31-1.61,0.79-2.98c0.53-1.61,1.27-3.54,1.79-5.11h10.06l2.25,6.07
		c0.3,0.87,0.48,1.56,0.48,2.06c0.01,1.34-0.92,1.7-4.43,1.7v1.25l13.05-0.01v-1.24c-3.03,0-3.26-0.64-4.88-5.24L930.63,573.52
		 M923.12,589.46l4.17-11.62l4.22,11.62H923.12"/>
	<path class="st23" d="M959.46,574.24l-14.4,0.01v1.24h0.62c2.94,0,3.63,0.61,3.63,3.71l0.01,18.56c0,3.4-0.7,3.81-4.26,3.82v1.24
		l21.26-0.01l3.38-6.94h-1.32c-2.9,4.04-3.42,4.87-6.41,4.87h-5.57c-1.76,0-2.2-0.41-2.2-2.11v-19.75c0-3.31,0.83-3.4,5.26-3.4
		V574.24"/>
	<path class="st23" d="M1001.88,573.49h-4.92l0.36,1.15l-7.73,22.14c-1.41,4.04-1.75,4.73-4.96,4.78v1.24h10.72v-1.24h-1.05
		c-2.03,0-3.34-0.28-3.34-1.75c0-0.87,0.31-1.61,0.79-2.99c0.53-1.6,1.27-3.53,1.8-5.1h10.07l2.23,6.06
		c0.31,0.87,0.49,1.56,0.49,2.07c0,1.34-0.92,1.7-4.44,1.7v1.24h13.05v-1.24c-3.03,0-3.25-0.65-4.88-5.24L1001.88,573.49
		 M994.37,589.43l4.17-11.62l4.22,11.62H994.37"/>
	<g>
		<defs>
			<rect id="SVGID_00000157992936335182730970000012558243960884336800_" x="1015.95" y="573.56" width="34.45" height="30.2"/>
		</defs>
		<clipPath id="SVGID_00000012446197134986633630000015350543984594696354_">
			<use xlink:href="#SVGID_00000157992936335182730970000012558243960884336800_"  style="overflow:visible;"/>
		</clipPath>
		<g style="clip-path:url(#SVGID_00000012446197134986633630000015350543984594696354_);">
			<path class="st23" d="M1050.12,574.21l-10.62,0.01v1.24c3.47,0,4.22,0.36,4.22,3.71v12.63c0,5.65-3.47,8.87-9.44,8.87
				c-6.01,0-9.39-3.35-9.39-8.73l-0.01-12.73c0-3.07,0.75-3.77,3.87-3.77v-1.24l-12.47,0.01v1.24c2.86,0,3.73,0.6,3.73,3.3
				l0.01,13.22c0,7.12,4.31,11.53,12.83,11.53c8.52-0.01,13.31-4.65,13.31-11.21l-0.01-13.09c0-3.22,0.92-3.77,4-3.77V574.21"/>
		</g>
	</g>
	<path class="st23" d="M1079,573.42h-1.18c-0.18,0.6-0.53,0.78-2.51,0.78l-19.2,0.01c-1.53,0-2.32-0.05-2.59-0.78h-1.18l-0.79,7.9
		h1.27c0.58-3.53,0.84-5.05,3.65-5.05l6.76-0.01l0.01,21.82c0,2.89-0.83,3.44-5.09,3.45v1.24l15.06-0.01v-1.24
		c-4.3,0-5.09-0.37-5.09-3.44l-0.01-21.82h6.8c2.82,0,3.08,1.56,3.61,5.06l1.27-0.01L1079,573.42"/>
	<path class="st23" d="M1115.3,574.19l-12.91,0.01v1.24c3.42,0.13,4.04,0.96,4.04,4.54l0.01,7.17l-15.86,0.01l-0.01-7.12
		c0-3.68,0.66-4.46,3.91-4.6v-1.24h-12.69v1.25c2.98,0.09,3.91,0.73,3.91,4.41l0.01,17.59c0,3.08-0.61,3.86-3.91,4.09v1.24h12.69
		v-1.24c-2.99-0.14-3.91-0.78-3.91-3.82v-8.49l15.86-0.01v8.13c0,3.36-0.92,4.04-4.04,4.18v1.24l12.91-0.01v-1.24
		c-3.38-0.23-4-0.96-4-4.04l-0.01-17.78c0-3.53,0.79-4.09,4-4.27V574.19"/>
	<g>
		<defs>
			<rect id="SVGID_00000011730149584959241680000005741140076622137488_" x="1118.62" y="572.88" width="32.42" height="30.88"/>
		</defs>
		<clipPath id="SVGID_00000162323745489055971520000004615231422622584467_">
			<use xlink:href="#SVGID_00000011730149584959241680000005741140076622137488_"  style="overflow:visible;"/>
		</clipPath>
		<g style="clip-path:url(#SVGID_00000162323745489055971520000004615231422622584467_);">
			<path class="st23" d="M1134.76,573.45h-0.01c-9.36,0-16.03,6.66-16.03,15.8c0.01,8.41,6.9,14.24,15.86,14.24
				c9.57-0.01,16.21-6.94,16.2-15.53C1150.78,579.55,1144.41,573.45,1134.76,573.45 M1135.28,602.01c-2.99,0-5.94-1.37-7.96-3.81
				c-2.02-2.43-3.29-5.79-3.3-10.19c0-8.27,4.25-13.09,10.32-13.09c6.55,0,11.11,5.92,11.11,14.19
				C1145.46,596.96,1141.25,602.01,1135.28,602.01"/>
		</g>
	</g>
	<path class="st23" d="M1165.11,573.76h-0.07c-4.97,0-9.97,0.41-10.98,0.41v1.24c3.29,0.05,4.08,0.51,4.08,3.54l0.01,18.83
		c0,2.98-0.65,3.72-3.55,3.72h-0.53v1.24l13.44-0.01v-1.24h-0.71c-3.21,0-3.78-0.68-3.78-4.27v-6.33c0.6,0.06,1.2,0.09,1.79,0.09
		c0.7,0,1.41-0.03,2.12-0.09c1.85,1.33,4.05,3.63,6.37,6.11c4.44,4.73,6.55,6.24,13.4,6.24h2.06v-1.28
		c-3.64-0.37-6.9-2.48-10.5-6.29c-3.65-3.86-5.67-5.83-6.2-6.2c3.69-1.6,5.54-4.09,5.54-7.49c0-2.71-1.24-5.1-3.96-6.57
		C1171.63,574.32,1169.36,573.76,1165.11,573.76 M1164.47,589.74c-0.58,0-1.06-0.09-1.45-0.13v-14.37c0.34-0.09,1.49-0.18,2.06-0.18
		h0.02c4.86,0,7.19,2.75,7.19,7.39c0,2.21-0.44,3.86-1.49,5.05C1169.25,589.23,1166.31,589.7,1164.47,589.74"/>
	<path class="st23" d="M1201.69,574.16h-12.26v1.25c2.68,0,3.61,0.64,3.61,3.26v19.11c0,2.94-0.52,3.71-3.6,3.71v1.25l12.26-0.01
		v-1.24h-0.44c-2.64,0-3.35-0.87-3.35-4.04v-18.23c0-3.03,0.79-3.81,3.78-3.81V574.16"/>
	<path class="st23" d="M1231.43,573.37h-1.18c-0.17,0.6-0.53,0.78-2.51,0.79h-19.19c-1.53,0-2.32-0.04-2.59-0.78h-1.19l-0.79,7.9
		h1.28c0.58-3.53,0.84-5.05,3.65-5.05l6.76-0.01l0.01,21.82c0,2.89-0.84,3.45-5.09,3.45v1.24l15.07-0.01v-1.24
		c-4.31,0-5.1-0.37-5.1-3.45l-0.01-21.81h6.82c2.8,0,3.06,1.56,3.59,5.05h1.28L1231.43,573.37"/>
	<path class="st23" d="M1265.05,574.14l-10.32,0.01v1.24h0.04c2.03,0,2.77,0.46,2.77,1.42c0,0.41-0.17,1.01-0.58,1.7
		c-1.62,2.9-3.9,6.57-5.88,9.88l-5.41-8.08c-1.71-2.57-1.84-2.98-1.84-3.58c0-0.83,0.66-1.33,3.07-1.33v-1.24h-13.22v1.25
		c2.94,0.14,3.43,0.64,5.49,3.72l8.27,12.39v5.98c0,3.58-0.84,4-4.21,4v1.24l13.26-0.01v-1.24c-3.42,0-4.17-0.46-4.17-3.77v-6.61
		l5.66-9.56c2.95-5,3.65-5.79,7.07-6.15V574.14"/>
	<path class="st23" d="M346.22,484.53h-6.61v6.96l6.61-0.01V484.53 M336.12,484.53h-6.6v6.96h6.6L336.12,484.53 M336.41,498.67
		c-2,0-4.04,0.3-6.12,0.89c-2.89,0.84-5.17,2.28-6.83,4.32c-1.67,2.04-2.73,4.57-3.17,7.59c-0.15,1.09-0.27,2.38-0.36,3.88
		c-0.09,1.49-0.16,3.03-0.2,4.62c-0.05,1.59-0.07,3.14-0.07,4.65c0,1.51,0.03,2.8,0.09,3.9c0.42,6.38,4.04,9.65,10.85,9.79
		l34.38-0.01h-0.45v-6.67l-8.48,0.01l-0.01-25.81h3.03v-6.68h-9.51l0.01,4.71c-2.89-2.52-5.95-4.11-9.21-4.78
		C339.07,498.8,337.75,498.67,336.41,498.67 M332.08,531.63c-1.22,0-2.2-0.09-2.94-0.26c-0.75-0.17-1.34-0.48-1.75-0.93
		c-0.41-0.45-0.7-1.08-0.85-1.89c-0.16-0.81-0.23-1.85-0.23-3.13v-8.78c0.24-4.08,1.22-6.99,2.94-8.75
		c1.54-1.57,3.82-2.35,6.87-2.35c0.38,0,0.77,0.01,1.16,0.04c1.37,0.12,2.78,0.49,4.24,1.09c1.46,0.6,2.78,1.31,3.97,2.12
		c1.19,0.82,2.17,1.65,2.94,2.5c0.77,0.86,1.16,1.59,1.16,2.21v18.11L332.08,531.63"/>
	<path class="st23" d="M380.09,476.68h-9.6v6.82h3.04l0.01,42.8c-0.03,1.09-0.13,1.98-0.29,2.66c-0.16,0.69-0.45,1.24-0.85,1.64
		c-0.41,0.41-0.94,0.68-1.61,0.82c-0.66,0.14-1.53,0.21-2.56,0.21h-3.7v6.67h5.72c3.12-0.06,5.53-0.97,7.23-2.73
		c1.69-1.77,2.57-4.34,2.63-7.74L380.09,476.68"/>
	<path class="st23" d="M405.82,498.65c-2,0-4.04,0.3-6.13,0.89c-2.89,0.85-5.16,2.29-6.83,4.32c-1.66,2.04-2.72,4.57-3.17,7.59
		c-0.15,1.08-0.26,2.37-0.36,3.88c-0.09,1.49-0.15,3.03-0.2,4.61c-0.04,1.59-0.07,3.13-0.07,4.64c0,1.51,0.03,2.81,0.09,3.9
		c0.41,6.38,4.03,9.64,10.85,9.8l19.01-0.01v5.27c0.01,3.64-0.93,6.32-2.79,8.05c-1.85,1.73-4.54,2.59-8.05,2.59
		c-0.45,0-1.12-0.07-2.01-0.21c-0.89-0.14-1.83-0.3-2.81-0.49c-0.98-0.18-1.92-0.39-2.8-0.58c-0.87-0.2-1.51-0.38-1.89-0.54l-0.71,7
		c1.25,0.44,2.46,0.78,3.64,1.06c1.18,0.26,2.44,0.47,3.77,0.62c1.01,0.12,1.99,0.18,2.95,0.18c1.78,0,3.46-0.21,5.06-0.63
		c2.46-0.64,4.58-1.7,6.37-3.17c1.79-1.48,3.18-3.34,4.19-5.56c1.01-2.23,1.51-4.77,1.51-7.64l-0.01-38.46h3.04l-0.01-6.67
		l-9.5,0.01v4.71c-2.89-2.52-5.95-4.12-9.2-4.78C408.48,498.78,407.16,498.65,405.82,498.65 M401.49,531.61
		c-1.22,0-2.2-0.09-2.94-0.26c-0.74-0.17-1.32-0.49-1.74-0.94c-0.42-0.45-0.7-1.08-0.85-1.88c-0.15-0.81-0.22-1.85-0.22-3.13
		l-0.01-8.78c0.24-4.07,1.22-7,2.94-8.76c1.54-1.56,3.83-2.34,6.87-2.34c0.37,0,0.76,0.01,1.16,0.03c1.37,0.12,2.79,0.49,4.25,1.1
		c1.45,0.61,2.78,1.31,3.97,2.12c1.19,0.81,2.17,1.64,2.95,2.5c0.77,0.86,1.16,1.6,1.16,2.22l0.01,18.11L401.49,531.61"/>
	<path class="st23" d="M465.21,499.1h-0.04l-25.84,0.01v9.01h6.65v-2.06l18.21-0.01c1.22,0,2.21,0.08,2.95,0.23
		c0.74,0.16,1.33,0.46,1.77,0.91c0.42,0.45,0.72,1.08,0.89,1.89c0.16,0.81,0.26,1.85,0.29,3.13v19.37l-32.67,0.02v6.68l48.16-0.02
		v-0.01h-0.44v-6.67h0.44v0l-8.93,0.01l-0.01-20.59c0-4.13-0.92-7.15-2.75-9.05C472.07,500.06,469.18,499.1,465.21,499.1"/>
	<path class="st23" d="M500.7,476.63l-9.6,0.01l0.01,6.82h3.04l0.01,42.8c-0.03,1.09-0.13,1.98-0.29,2.66
		c-0.16,0.69-0.45,1.24-0.84,1.64c-0.41,0.4-0.94,0.68-1.61,0.81c-0.67,0.14-1.52,0.21-2.56,0.21h-3.7v6.67h5.71
		c3.13-0.06,5.54-0.97,7.23-2.73c1.7-1.76,2.57-4.34,2.63-7.73L500.7,476.63"/>
	<path class="st23" d="M519,476.59h-9.37v6.72h2.99l0.02,54.93h6.38"/>
	<path class="st23" d="M594.21,492.1h-6.61v6.96l6.61-0.01V492.1 M584.13,492.1h-6.61v6.96h6.61V492.1z M620.77,499.05h-9.6v6.82
		h3.04l0.01,20.35c-0.03,1.09-0.12,1.98-0.29,2.66c-0.16,0.69-0.45,1.23-0.85,1.64c-0.4,0.4-0.94,0.68-1.6,0.81
		c-0.67,0.14-1.53,0.21-2.57,0.21l-42.35,0.02c-4.38-0.09-7.57-1.41-9.57-3.94c-2.01-2.54-2.79-6.09-2.35-10.66
		c0.3-2.74,0.87-5.22,1.74-7.45c0.86-2.22,2.01-4.31,3.44-6.27l-5.59-4.1c-1.42,1.96-2.6,4.03-3.54,6.21
		c-0.94,2.17-1.62,4.53-2.07,7.05c-0.33,1.77-0.51,3.56-0.54,5.37c-0.03,1.8,0.08,3.59,0.31,5.37c0.32,2.33,0.94,4.42,1.83,6.29
		c0.89,1.88,2.04,3.45,3.43,4.74c1.4,1.29,3.03,2.29,4.9,2.98c1.85,0.7,3.9,1.07,6.13,1.1l46.24-0.02c3.13-0.05,5.54-0.97,7.23-2.73
		c1.69-1.76,2.57-4.33,2.63-7.73L620.77,499.05"/>
	<path class="st23" d="M639.07,476.54h-9.38l0.01,6.72h2.99l0.02,54.94h6.38"/>
	<path class="st23" d="M660.5,499.03h-9.64l0.01,6.72h3.04l0.01,36.08c0.01,8.38-3.64,12.57-10.93,12.57c-0.8,0-1.65-0.05-2.55-0.15
		c-0.8-0.12-1.63-0.27-2.48-0.44c-0.85-0.17-1.64-0.4-2.39-0.68c-0.18,1.22-0.34,2.31-0.49,3.3c-0.15,0.97-0.3,2.12-0.45,3.43
		c1.25,0.56,2.6,0.93,4.04,1.12c1.44,0.18,2.84,0.28,4.17,0.28c2.77,0,5.25-0.39,7.44-1.15c2.19-0.77,4.03-1.92,5.55-3.44
		c1.52-1.52,2.68-3.42,3.48-5.69c0.81-2.27,1.21-4.92,1.21-7.94L660.5,499.03"/>
	<path class="st23" d="M687.94,476.52l-9.6,0.01l0.02,51.2c0.06,3.39,0.93,5.96,2.63,7.72c1.7,1.75,4.11,2.66,7.23,2.73h9.1h-0.44
		v-6.67h-6.65c-1.05,0-1.9-0.07-2.57-0.21s-1.2-0.41-1.61-0.81c-0.4-0.41-0.68-0.96-0.85-1.64c-0.16-0.68-0.26-1.57-0.29-2.66
		l-0.01-42.86h3.04L687.94,476.52"/>
	<path class="st23" d="M728.38,484.4h-6.61v6.96l6.61-0.01L728.38,484.4 M718.3,484.4h-6.61v6.96h6.61V484.4z M717.2,498.54
		c-2,0-4.04,0.3-6.13,0.9c-2.88,0.84-5.16,2.28-6.83,4.32c-1.66,2.04-2.72,4.58-3.17,7.59c-0.15,1.09-0.26,2.38-0.35,3.88
		c-0.09,1.49-0.16,3.03-0.2,4.62c-0.04,1.59-0.06,3.14-0.06,4.65s0.03,2.8,0.09,3.9c0.03,1.15,0.21,2.19,0.54,3.12l-4.19,0.01v6.68
		h0.44l48.48-0.02h-0.45v-6.67h-8.53l-0.01-25.81h3.03l-0.01-6.68h-9.5v4.71c-2.88-2.52-5.95-4.11-9.2-4.78
		C719.86,498.67,718.54,498.54,717.2,498.54 M712.51,531.5c-1.13-0.03-2.05-0.14-2.76-0.3c-0.72-0.18-1.26-0.49-1.65-0.94
		c-0.39-0.45-0.65-1.07-0.79-1.87c-0.13-0.79-0.2-1.83-0.2-3.1l-0.01-8.78c0.24-4.08,1.22-6.99,2.94-8.75
		c1.53-1.57,3.83-2.35,6.89-2.35c0.37,0,0.75,0.01,1.14,0.03c1.37,0.12,2.78,0.5,4.23,1.1c1.46,0.61,2.78,1.31,3.97,2.12
		c1.19,0.82,2.18,1.65,2.95,2.5c0.77,0.86,1.16,1.59,1.16,2.21l0.01,18.11L712.51,531.5"/>
	<path class="st23" d="M770.48,498.99h-5.85c-5.98,0.01-10.23,1.34-12.76,3.97c-0.62,0.65-1.16,1.35-1.61,2.11
		c-0.44,0.74-0.78,1.59-1,2.52c-0.22,0.93-0.34,1.99-0.35,3.15c-0.01,1.16,0.09,2.5,0.33,3.99c0.36,2.46,3.51,8.04,9.47,16.76
		l-13.34,0.01v6.67h0.45l44.9-0.01v-6.67h0.45v0l-14.78,0.01c2.98-4.36,5.2-7.95,6.69-10.76c1.49-2.82,2.41-4.82,2.77-6
		c0.38-1.37,0.59-2.64,0.61-3.79c0.03-1.15-0.09-2.21-0.36-3.17c-0.26-0.96-0.65-1.84-1.16-2.64c-0.51-0.79-1.07-1.52-1.7-2.17
		C780.71,500.31,776.46,498.99,770.48,498.99 M767.37,531.49c-3.76-5.41-6.56-9.65-8.44-12.7c-1.87-3.04-2.89-4.96-3.04-5.75
		c-0.15-0.8-0.17-1.53-0.07-2.17c0.11-0.64,0.41-1.22,0.91-1.75c1.1-1.15,2.45-1.98,4.04-2.47c1.59-0.5,3.18-0.75,4.75-0.75
		c1.43,0,2.62,0.03,3.58,0.07c0.95,0.05,1.74,0.1,2.38,0.16c0.64,0.07,1.18,0.15,1.61,0.26c0.43,0.11,0.84,0.22,1.23,0.35
		c1.7,0.53,3,1.31,3.91,2.35c0.91,1.05,1.25,2.36,1,3.95c-0.21,1.53-4.06,7.68-11.55,18.45H767.37"/>
	<path class="st23" d="M806.27,476.53h-9.6v6.82h3.04l0.01,42.8c-0.03,1.1-0.13,1.98-0.29,2.66c-0.16,0.69-0.45,1.23-0.84,1.64
		c-0.41,0.41-0.94,0.68-1.61,0.81c-0.66,0.14-1.52,0.22-2.56,0.22h-3.7v6.67h5.71c3.13-0.06,5.54-0.97,7.23-2.73
		c1.69-1.76,2.56-4.34,2.63-7.73L806.27,476.53"/>
	<path class="st23" d="M861.89,484.36h-6.6v6.96l6.61-0.01L861.89,484.36 M851.8,484.36h-6.61v6.96h6.61V484.36z M852.09,498.49
		c-2,0-4.04,0.3-6.13,0.89c-2.89,0.84-5.16,2.28-6.83,4.32c-1.67,2.04-2.73,4.58-3.17,7.59c-0.15,1.09-0.27,2.38-0.36,3.88
		c-0.09,1.49-0.16,3.03-0.2,4.62c-0.05,1.59-0.07,3.14-0.07,4.65c0,1.51,0.03,2.8,0.09,3.9c0.42,6.37,4.04,9.64,10.85,9.79
		l33.92-0.01v-6.66h-8.49l-0.01-25.81h3.03v-6.68l-9.5,0.01v4.71c-2.89-2.52-5.96-4.11-9.2-4.78
		C854.75,498.62,853.43,498.49,852.09,498.49 M847.76,531.45c-1.22,0-2.2-0.09-2.94-0.26c-0.75-0.17-1.33-0.48-1.75-0.93
		c-0.41-0.45-0.7-1.08-0.84-1.89c-0.15-0.81-0.22-1.85-0.22-3.13l-0.01-8.78c0.24-4.07,1.22-6.99,2.94-8.75
		c1.54-1.57,3.83-2.35,6.87-2.35c0.38,0,0.76,0.01,1.16,0.04c1.37,0.13,2.78,0.49,4.25,1.09c1.45,0.61,2.78,1.31,3.97,2.12
		c1.19,0.82,2.17,1.65,2.95,2.5c0.77,0.86,1.16,1.59,1.16,2.21v18.11L847.76,531.45"/>
	<path class="st23" d="M906.28,498.47c-2,0-4.05,0.3-6.13,0.89c-2.88,0.84-5.17,2.28-6.83,4.32c-1.66,2.04-2.72,4.57-3.17,7.59
		c-0.15,0.94-0.26,2.05-0.36,3.34c-0.08,1.29-0.16,2.63-0.22,4.01c-0.06,1.39-0.09,2.78-0.09,4.16c0,1.39,0.02,2.64,0.06,3.76
		c-0.06,1-0.18,1.81-0.36,2.46c-0.18,0.64-0.46,1.13-0.85,1.49c-0.38,0.36-0.9,0.61-1.56,0.74c-0.65,0.14-1.49,0.22-2.5,0.22h-4.06
		v6.67h6.07c2.79-0.03,5.04-0.79,6.73-2.3c1.85,1.47,4.33,2.23,7.46,2.3l25.44-0.01l-0.01-32.49h3.04l-0.01-6.68l-9.5,0.01v4.71
		c-2.88-2.52-5.95-4.12-9.2-4.78C908.93,498.61,907.62,498.47,906.28,498.47 M901.94,531.44c-1.22,0-2.2-0.08-2.94-0.26
		c-0.75-0.17-1.33-0.48-1.74-0.93c-0.42-0.45-0.7-1.08-0.85-1.89c-0.15-0.8-0.22-1.85-0.22-3.13v-8.78
		c0.24-4.07,1.22-6.99,2.94-8.75c1.54-1.56,3.83-2.35,6.88-2.35c0.37,0,0.76,0.01,1.15,0.03c1.37,0.13,2.79,0.5,4.24,1.1
		c1.45,0.61,2.78,1.31,3.97,2.13c1.19,0.8,2.17,1.64,2.95,2.5c0.77,0.85,1.16,1.59,1.16,2.21l0.01,18.11L901.94,531.44"/>
	<path class="st23" d="M947.45,476.43l-9.6,0.01l0.02,51.2c0.06,3.39,0.95,5.97,2.64,7.73c1.7,1.75,4.11,2.67,7.23,2.72h9.1v0h-0.44
		v-6.67h-6.65c-1.04,0-1.9-0.07-2.57-0.21c-0.67-0.14-1.2-0.41-1.61-0.81c-0.41-0.41-0.69-0.95-0.85-1.63
		c-0.16-0.68-0.26-1.57-0.29-2.66l-0.01-42.85l3.04-0.01L947.45,476.43"/>
	<path class="st23" d="M981.52,498.92h-5.85c-5.98,0.01-10.23,1.32-12.76,3.97c-0.62,0.66-1.17,1.35-1.61,2.1
		c-0.44,0.75-0.78,1.59-1,2.52c-0.22,0.93-0.34,1.98-0.35,3.16c-0.02,1.16,0.09,2.49,0.33,3.99c0.36,2.46,3.51,8.04,9.47,16.76
		h-13.34v6.67h0.44l44.9-0.01v-6.67l-14.32,0.01c2.98-4.36,5.21-7.95,6.69-10.76c1.49-2.82,2.41-4.82,2.77-6
		c0.38-1.37,0.59-2.63,0.62-3.78c0.03-1.15-0.09-2.21-0.36-3.17c-0.26-0.96-0.65-1.84-1.15-2.64c-0.51-0.79-1.07-1.51-1.7-2.17
		C991.75,500.24,987.5,498.92,981.52,498.92 M978.4,531.41c-3.75-5.42-6.56-9.64-8.44-12.69c-1.89-3.05-2.89-4.97-3.04-5.75
		c-0.15-0.81-0.18-1.53-0.07-2.17c0.1-0.64,0.41-1.23,0.91-1.75c1.1-1.15,2.44-1.98,4.03-2.47c1.6-0.51,3.18-0.75,4.76-0.75
		c1.42,0,2.61,0.03,3.56,0.08c0.95,0.04,1.75,0.09,2.39,0.16c0.64,0.06,1.17,0.14,1.61,0.26c0.42,0.11,0.84,0.22,1.23,0.35
		c1.69,0.54,2.99,1.32,3.91,2.36c0.9,1.04,1.23,2.36,1,3.94c-0.21,1.53-4.06,7.68-11.55,18.45H978.4"/>
	<path class="st23" d="M1017.31,476.45l-9.6,0.01v6.82h3.04l0.01,42.8c-0.03,1.09-0.13,1.98-0.29,2.66
		c-0.16,0.69-0.45,1.23-0.84,1.64c-0.41,0.41-0.95,0.68-1.61,0.81c-0.66,0.14-1.52,0.22-2.57,0.22h-3.7v6.68h5.71
		c3.13-0.06,5.54-0.98,7.23-2.74c1.69-1.76,2.57-4.34,2.63-7.73L1017.31,476.45"/>
	<path class="st23" d="M1035.61,476.41h-9.37v6.72h2.98l0.02,54.94h6.38"/>
	<path class="st23" d="M1091.22,484.28h-6.61v6.96l6.61-0.01L1091.22,484.28 M1081.14,484.28h-6.61v6.96h6.61V484.28z
		 M1081.43,498.41c-2,0-4.05,0.3-6.13,0.89c-2.88,0.84-5.16,2.28-6.83,4.32c-1.67,2.04-2.73,4.58-3.17,7.59
		c-0.15,1.09-0.27,2.38-0.36,3.88c-0.09,1.49-0.15,3.03-0.2,4.62c-0.04,1.59-0.07,3.14-0.07,4.65s0.03,2.8,0.09,3.9
		c0.42,6.37,4.04,9.64,10.85,9.79l33.93-0.01l-0.01-6.67h-8.48l-0.01-25.81h3.03v-6.68h-9.5v4.71c-2.89-2.52-5.96-4.11-9.2-4.78
		C1084.08,498.55,1082.77,498.41,1081.43,498.41 M1077.09,531.38c-1.22,0-2.2-0.09-2.94-0.26c-0.75-0.17-1.32-0.48-1.74-0.93
		c-0.42-0.45-0.7-1.08-0.85-1.89c-0.15-0.8-0.22-1.85-0.22-3.13l-0.01-8.78c0.23-4.07,1.23-6.99,2.94-8.75
		c1.54-1.57,3.83-2.35,6.88-2.35c0.37,0,0.76,0.01,1.16,0.04c1.37,0.12,2.78,0.49,4.24,1.09c1.45,0.61,2.78,1.31,3.97,2.12
		c1.19,0.82,2.18,1.65,2.95,2.5c0.77,0.86,1.16,1.59,1.16,2.21l0.01,18.11L1077.09,531.38"/>
	<path class="st23" d="M1124.17,475.54c-1.08,0-2.07,0.17-2.97,0.51c-0.91,0.34-1.7,0.82-2.34,1.45c-0.66,0.62-1.17,1.38-1.54,2.29
		c-0.36,0.9-0.56,1.92-0.56,3.03v1.31c0,1.68,0.39,3.1,1.17,4.25h-2.64l0.01,2.85l14.05-0.01v-2.85h-5.67
		c-1.11-0.09-2.01-0.49-2.74-1.21c-0.73-0.71-1.14-1.71-1.23-2.98v-0.89c0.03-1.52,0.44-2.69,1.23-3.48
		c0.78-0.79,1.83-1.19,3.14-1.19c0.25,0,0.52,0.02,0.84,0.07c0.33,0.05,0.68,0.14,1.03,0.26v1.58h2.94v-4.15
		c-0.8-0.25-1.59-0.45-2.39-0.61C1125.72,475.61,1124.93,475.54,1124.17,475.54 M1125.47,502.98h-6.56l0.01,23.06
		c-0.03,1.09-0.12,1.98-0.28,2.66c-0.16,0.69-0.45,1.23-0.85,1.64c-0.4,0.41-0.94,0.68-1.61,0.81c-0.67,0.14-1.53,0.22-2.56,0.22
		h-4.07v0l0.01,6.67l6.07-0.01c2.77-0.03,4.96-0.74,6.56-2.14c1.7,1.4,3.9,2.11,6.61,2.14h6.16v0h-0.45l-0.01-6.67h-3.7
		c-1.05,0-1.91-0.07-2.57-0.21c-0.67-0.14-1.2-0.41-1.61-0.82c-0.4-0.4-0.68-0.95-0.84-1.63c-0.16-0.68-0.26-1.57-0.29-2.66
		L1125.47,502.98"/>
	<path class="st23" d="M1152.51,502.96l-6.56,0.01l0.01,23.06c-0.03,1.09-0.12,1.98-0.29,2.66c-0.16,0.69-0.45,1.23-0.84,1.63
		c-0.4,0.41-0.93,0.68-1.6,0.82c-0.68,0.14-1.53,0.21-2.57,0.21l-6.16,0.01l0.01,6.67h8.16c2.78-0.03,4.97-0.75,6.56-2.15
		c1.7,1.4,3.9,2.11,6.61,2.15h7.42h-0.45l-0.01-6.68l-4.95,0.01c-1.04,0-1.9-0.07-2.57-0.21c-0.67-0.14-1.2-0.41-1.6-0.82
		c-0.41-0.41-0.69-0.95-0.85-1.63c-0.16-0.68-0.26-1.58-0.3-2.66L1152.51,502.96 M1158.29,544.84h-6.61v6.95h6.61L1158.29,544.84
		 M1148.2,544.84h-6.61l0.01,6.96h6.61V544.84"/>
	<path class="st23" d="M1205.84,492.06c-1.12,0-2.27,0.08-3.46,0.25c-3.07,0.43-6.1,1.23-9.11,2.36c-3.01,1.14-5.78,2.5-8.3,4.09
		l1.47,3.59c-0.67-0.07-1.34-0.1-2.02-0.1c-2,0-4.07,0.3-6.19,0.9c-2.88,0.85-5.16,2.28-6.82,4.32c-1.67,2.04-2.72,4.57-3.17,7.59
		c-0.3,2.15-0.49,4.33-0.56,6.56c-0.07,2.23-0.07,4.43,0.02,6.6c0.03,1.15,0.21,2.2,0.54,3.13h-5.45l0.01,6.68h0.45l68.42-0.03
		h-0.45v-6.67l-8.26,0.01l-0.01-22.36c-0.06-2.89-0.62-5.47-1.68-7.72c-1.06-2.25-2.5-4.11-4.33-5.58
		c-1.82-1.46-3.98-2.49-6.47-3.07C1209.01,492.24,1207.46,492.06,1205.84,492.06 M1203.99,531.33l-0.01-14.47
		c0-0.99-0.19-1.93-0.57-2.8c-0.39-0.87-0.89-1.69-1.49-2.47c-0.61-0.77-1.31-1.51-2.08-2.19c-0.78-0.68-1.55-1.33-2.33-1.96
		c-1.9-1.65-3.94-2.93-6.11-3.83c0.84-0.37,1.73-0.77,2.68-1.17c0.95-0.41,1.92-0.79,2.9-1.15c0.98-0.36,1.96-0.7,2.93-1.01
		c0.97-0.31,1.88-0.56,2.74-0.75c1.16-0.24,2.26-0.36,3.3-0.36c0.69,0,1.35,0.05,1.99,0.15c1.61,0.27,3.02,0.84,4.22,1.73
		c1.19,0.89,2.12,2.08,2.82,3.58c0.68,1.49,1.03,3.27,1.07,5.32l0.01,21.38H1203.99 M1179.66,531.34c-1.13-0.03-2.05-0.13-2.77-0.3
		c-0.71-0.17-1.26-0.48-1.65-0.93c-0.39-0.45-0.65-1.07-0.78-1.87c-0.13-0.79-0.21-1.83-0.21-3.11c-0.03-0.74-0.04-1.56-0.04-2.47
		c0-0.9,0.01-1.71,0.04-2.42c0.24-4.08,1.22-6.99,2.94-8.76c1.54-1.57,3.84-2.35,6.9-2.35c0.37,0,0.75,0.01,1.14,0.03
		c1.37,0.12,2.78,0.5,4.24,1.1c1.45,0.61,2.78,1.32,3.97,2.13c1.19,0.8,2.18,1.64,2.94,2.49c0.78,0.86,1.16,1.6,1.16,2.22
		l0.01,14.23L1179.66,531.34"/>
	<path class="st23" d="M1246.78,476.38h-9.6l0.01,6.82l3.04-0.01l0.01,42.8c-0.03,1.09-0.13,1.98-0.29,2.66
		c-0.16,0.69-0.45,1.23-0.85,1.64c-0.41,0.41-0.94,0.68-1.61,0.82c-0.67,0.13-1.53,0.21-2.56,0.21h-3.7v6.67h5.71
		c3.13-0.06,5.53-0.97,7.23-2.73c1.69-1.76,2.57-4.33,2.63-7.73L1246.78,476.38"/>
	<path class="st23" d="M1265.08,476.33h-9.37v6.72h2.99l0.02,54.93h6.38"/>
</g>
</svg>
